<svg xmlns="http://www.w3.org/2000/svg" xmlns:xlink="http://www.w3.org/1999/xlink" viewBox="0 0 242.49 349.94"><defs><style>.cls-1{fill:url(#linear-gradient);}.cls-2{fill:url(#linear-gradient-2);}</style><linearGradient id="linear-gradient" x1="121.25" y1="387.39" x2="121.25" y2="55.2" gradientUnits="userSpaceOnUse"><stop offset="0" stop-color="#0e70ba"/><stop offset="1" stop-color="#24b6f2"/></linearGradient><linearGradient id="linear-gradient-2" x1="121.25" y1="387.39" x2="121.25" y2="55.2" xlink:href="#linear-gradient"/></defs><g id="Layer_2" data-name="Layer 2"><g id="Layer_1-2" data-name="Layer 1"><path class="cls-1" d="M122.92,0C56.4-.89.71,53.4,0,119.93a120.86,120.86,0,0,0,38.25,89.68,44.76,44.76,0,0,1,14.32,32.56v6.73A12.06,12.06,0,0,0,64.64,261H177.85a12.06,12.06,0,0,0,12.06-12.06v-6.73a44.82,44.82,0,0,1,14.37-32.6A121.23,121.23,0,0,0,122.92,0Z"/><path class="cls-2" d="M166.58,276.17H75.91a14.64,14.64,0,0,0,0,29.28h90.67a14.64,14.64,0,0,0,0-29.28Z"/><path class="cls-2" d="M150.93,320.66H91.56a14.64,14.64,0,0,0,0,29.28h59.37a14.64,14.64,0,0,0,0-29.28Z"/></g></g></svg>